{"title":"Heneral.Luna.2015.HC.720p.WEB-DL.AVC-PN","uid":14456502,"size":2380845207,"categoryP":"video","categoryS":"movies","magnet":"?xt=urn:btih:617ec868d23414c565ff76545c83ec2f6cdae045&amp;dn=Heneral.Luna.2015.HC.720p.WEB-DL.AVC-PN&amp;tr=udp%3A%2F%2Ftracker.leechers-paradise.org%3A6969&amp;tr=udp%3A%2F%2Fzer0day.ch%3A1337&amp;tr=udp%3A%2F%2Fopen.demonii.com%3A1337&amp;tr=udp%3A%2F%2Ftracker.coppersurfer.tk%3A6969&amp;tr=udp%3A%2F%2Fexodus.desync.com%3A6969","seeders":2,"leechers":3,"uploader":"nyaks.PH","files":4,"time":1461796650,"description":"http://s32.postimg.org/gr30o2779/Poster.jpg \nhttp://s32.postimg.org/mf8t81i45/Screenshots.jpg\r\n\r\nGeneral\r\nComplete name                            : Heneral.Luna.2015.HC.720p.WEB-DL.AVC-PN.mkv\r\nFormat                                   : Matroska\r\nFormat version                           : Version 4 / Version 2\r\nFile size                                : 2.22 GiB\r\nDuration                                 : 1h 58mn\r\nOverall bit rate mode                    : Constant\r\nOverall bit rate                         : 2 679 Kbps\r\nEncoded date                             : UTC 2016-04-27 20:01:07\r\nWriting application                      : mkvmerge v9.0.1 ('Obstacles') 32bit\r\nWriting library                          : libebml v1.3.3 + libmatroska v1.4.4\r\n\r\nVideo\r\nID                                       : 1\r\nFormat                                   : AVC\r\nFormat/Info                              : Advanced Video Codec\r\nFormat profile                           :   \r\nFormat settings, CABAC                   : Yes\r\nFormat settings, ReFrames                : 4 frames\r\nCodec ID                                 : V_MPEG4/ISO/AVC\r\nDuration                                 : 1h 58mn\r\nBit rate mode                            : Constant\r\nBit rate                                 : 2 436 Kbps\r\nWidth                                    : 1 280 pixels\r\nHeight                                   : 720 pixels\r\nDisplay aspect ratio                     : 16:9\r\nFrame rate mode                          : Constant\r\nFrame rate                               : 30.000 fps\r\nColor space                              : YUV\r\nChroma subsampling                       : 4:2:0\r\nBit depth                                : 8 bits\r\nScan type                                : Progressive\r\nBits/(Pixel*Frame)                       : 0.088\r\nStream size                              : 2.00 GiB (90%)\r\nDefault                                  : Yes\r\nForced                                   : No\r\nColor range                              : Limited\r\nColor primaries                          : BT.709\r\nTransfer characteristics                 : BT.709\r\nMatrix coefficients                      : BT.709\r\n\r\nAudio\r\nID                                       : 2\r\nFormat                                   : MPEG Audio\r\nFormat version                           : Version 1\r\nFormat profile                           : Layer 3\r\nMode                                     : Joint stereo\r\nMode extension                           : MS Stereo\r\nCodec ID                                 : A_MPEG/L3\r\nCodec ID/Hint                            : MP3\r\nDuration                                 : 1h 58mn\r\nBit rate mode                            : Constant\r\nBit rate                                 : 256 Kbps\r\nChannel(s)                               : 2 channels\r\nSampling rate                            : 44.1 KHz\r\nFrame rate                               : 38.281 fps (1152 spf)\r\nCompression mode                         : Lossy\r\nDelay relative to video                  : -33ms\r\nStream size                              : 217 MiB (10%)\r\nWriting library                          : LAME3.99r\r\nEncoding settings                        : -m j -V 4 -q 2 -lowpass 19.7\r\nDefault                                  : Yes\r\nForced                                   : No\r\n\r\n\r\n\r\n\r\n■ AQOS ■ EL1TE ■","torrent":{"xt":"urn:btih:617ec868d23414c565ff76545c83ec2f6cdae045","amp;dn":"Heneral.Luna.2015.HC.720p.WEB-DL.AVC-PN","amp;tr":["udp%3A%2F%2Ftracker.leechers-paradise.org%3A6969","udp%3A%2F%2Fzer0day.ch%3A1337","udp%3A%2F%2Fopen.demonii.com%3A1337","udp%3A%2F%2Ftracker.coppersurfer.tk%3A6969","udp%3A%2F%2Fexodus.desync.com%3A6969"],"infoHash":"617ec868d23414c565ff76545c83ec2f6cdae045","infoHashBuffer":{"type":"Buffer","data":[97,126,200,104,210,52,20,197,101,255,118,84,92,131,236,47,108,218,224,69]},"announce":[],"urlList":[]}}